<svg width="98" height="10" viewBox="0 0 98 10" fill="none" xmlns="http://www.w3.org/2000/svg">
<path d="M0.996 9V0.599999H4.632C5.384 0.599999 6.032 0.724 6.576 0.972C7.12 1.212 7.54 1.56 7.836 2.016C8.132 2.472 8.28 3.016 8.28 3.648C8.28 4.272 8.132 4.812 7.836 5.268C7.54 5.716 7.12 6.06 6.576 6.3C6.032 6.54 5.384 6.66 4.632 6.66H2.076L2.94 5.808V9H0.996ZM6.336 9L4.236 5.952H6.312L8.436 9H6.336ZM2.94 6.024L2.076 5.112H4.524C5.124 5.112 5.572 4.984 5.868 4.728C6.164 4.464 6.312 4.104 6.312 3.648C6.312 3.184 6.164 2.824 5.868 2.568C5.572 2.312 5.124 2.184 4.524 2.184H2.076L2.94 1.26V6.024ZM11.6082 3.984H15.6522V5.496H11.6082V3.984ZM11.7522 7.44H16.3242V9H9.82022V0.599999H16.1682V2.16H11.7522V7.44ZM21.891 9.144C21.243 9.144 20.639 9.04 20.079 8.832C19.527 8.616 19.047 8.312 18.639 7.92C18.231 7.528 17.911 7.068 17.679 6.54C17.455 6.012 17.343 5.432 17.343 4.8C17.343 4.168 17.455 3.588 17.679 3.06C17.911 2.532 18.231 2.072 18.639 1.68C19.055 1.288 19.539 0.987999 20.091 0.779999C20.643 0.564 21.247 0.456 21.903 0.456C22.631 0.456 23.287 0.584 23.871 0.84C24.463 1.088 24.959 1.456 25.359 1.944L24.111 3.096C23.823 2.768 23.503 2.524 23.151 2.364C22.799 2.196 22.415 2.112 21.999 2.112C21.607 2.112 21.247 2.176 20.919 2.304C20.591 2.432 20.307 2.616 20.067 2.856C19.827 3.096 19.639 3.38 19.503 3.708C19.375 4.036 19.311 4.4 19.311 4.8C19.311 5.2 19.375 5.564 19.503 5.892C19.639 6.22 19.827 6.504 20.067 6.744C20.307 6.984 20.591 7.168 20.919 7.296C21.247 7.424 21.607 7.488 21.999 7.488C22.415 7.488 22.799 7.408 23.151 7.248C23.503 7.08 23.823 6.828 24.111 6.492L25.359 7.644C24.959 8.132 24.463 8.504 23.871 8.76C23.287 9.016 22.627 9.144 21.891 9.144ZM28.4598 3.984H32.5038V5.496H28.4598V3.984ZM28.6038 7.44H33.1758V9H26.6718V0.599999H33.0198V2.16H28.6038V7.44ZM34.7226 9V0.599999H38.3586C39.1106 0.599999 39.7586 0.724 40.3026 0.972C40.8466 1.212 41.2666 1.56 41.5626 2.016C41.8586 2.472 42.0066 3.016 42.0066 3.648C42.0066 4.272 41.8586 4.812 41.5626 5.268C41.2666 5.724 40.8466 6.076 40.3026 6.324C39.7586 6.564 39.1106 6.684 38.3586 6.684H35.8026L36.6666 5.808V9H34.7226ZM36.6666 6.024L35.8026 5.1H38.2506C38.8506 5.1 39.2986 4.972 39.5946 4.716C39.8906 4.46 40.0386 4.104 40.0386 3.648C40.0386 3.184 39.8906 2.824 39.5946 2.568C39.2986 2.312 38.8506 2.184 38.2506 2.184H35.8026L36.6666 1.26V6.024ZM44.9118 9V2.184H42.2238V0.599999H49.5438V2.184H46.8558V9H44.9118ZM53.2912 9.144C52.6192 9.144 51.9752 9.056 51.3592 8.88C50.7432 8.696 50.2472 8.46 49.8712 8.172L50.5312 6.708C50.8912 6.964 51.3152 7.176 51.8032 7.344C52.2992 7.504 52.7992 7.584 53.3032 7.584C53.6872 7.584 53.9952 7.548 54.2272 7.476C54.4672 7.396 54.6432 7.288 54.7552 7.152C54.8672 7.016 54.9232 6.86 54.9232 6.684C54.9232 6.46 54.8352 6.284 54.6592 6.156C54.4832 6.02 54.2512 5.912 53.9632 5.832C53.6752 5.744 53.3552 5.664 53.0032 5.592C52.6592 5.512 52.3112 5.416 51.9592 5.304C51.6152 5.192 51.2992 5.048 51.0112 4.872C50.7232 4.696 50.4872 4.464 50.3032 4.176C50.1272 3.888 50.0392 3.52 50.0392 3.072C50.0392 2.592 50.1672 2.156 50.4232 1.764C50.6872 1.364 51.0792 1.048 51.5992 0.816C52.1272 0.576 52.7872 0.456 53.5792 0.456C54.1072 0.456 54.6272 0.52 55.1392 0.648C55.6512 0.767999 56.1032 0.951999 56.4952 1.2L55.8952 2.676C55.5032 2.452 55.1112 2.288 54.7192 2.184C54.3272 2.072 53.9432 2.016 53.5672 2.016C53.1912 2.016 52.8832 2.06 52.6432 2.148C52.4032 2.236 52.2312 2.352 52.1272 2.496C52.0232 2.632 51.9712 2.792 51.9712 2.976C51.9712 3.192 52.0592 3.368 52.2352 3.504C52.4112 3.632 52.6432 3.736 52.9312 3.816C53.2192 3.896 53.5352 3.976 53.8792 4.056C54.2312 4.136 54.5792 4.228 54.9232 4.332C55.2752 4.436 55.5952 4.576 55.8832 4.752C56.1712 4.928 56.4032 5.16 56.5792 5.448C56.7632 5.736 56.8552 6.1 56.8552 6.54C56.8552 7.012 56.7232 7.444 56.4592 7.836C56.1952 8.228 55.7992 8.544 55.2712 8.784C54.7512 9.024 54.0912 9.144 53.2912 9.144ZM57.0795 9L60.8235 0.599999H62.7435L66.4995 9H64.4595L61.3875 1.584H62.1555L59.0715 9H57.0795ZM58.9515 7.2L59.4675 5.724H63.7875L64.3155 7.2H58.9515ZM69.0948 9.144C68.5268 9.144 68.0028 9.04 67.5228 8.832C67.0508 8.616 66.6628 8.312 66.3588 7.92L67.4388 6.624C67.6708 6.928 67.9148 7.16 68.1708 7.32C68.4268 7.472 68.7028 7.548 68.9988 7.548C69.7908 7.548 70.1868 7.084 70.1868 6.156V2.16H67.2348V0.599999H72.1188V6.048C72.1188 7.088 71.8628 7.864 71.3508 8.376C70.8388 8.888 70.0868 9.144 69.0948 9.144ZM75.6383 9V2.184H72.9503V0.599999H80.2703V2.184H77.5823V9H75.6383ZM83.1043 3.984H87.1483V5.496H83.1043V3.984ZM83.2483 7.44H87.8203V9H81.3163V0.599999H87.6643V2.16H83.2483V7.44ZM89.3671 9V0.599999H90.9751L95.9311 6.648H95.1511V0.599999H97.0711V9H95.4751L90.5071 2.952H91.2871V9H89.3671Z" fill="black"/>
</svg>
